<svg width="40" height="38" viewBox="0 0 40 38" fill="none" xmlns="http://www.w3.org/2000/svg">
<path d="M24 20H22V18C22 17.4696 21.7893 16.9609 21.4142 16.5858C21.0391 16.2107 20.5304 16 20 16C19.4696 16 18.9609 16.2107 18.5858 16.5858C18.2107 16.9609 18 17.4696 18 18V20H16C15.4696 20 14.9609 20.2107 14.5858 20.5858C14.2107 20.9609 14 21.4696 14 22C14 22.5305 14.2107 23.0392 14.5858 23.4142C14.9609 23.7893 15.4696 24 16 24H18V26C18 26.5304 18.2107 27.0392 18.5858 27.4142C18.9609 27.7893 19.4696 28 20 28C20.5304 28 21.0391 27.7893 21.4142 27.4142C21.7893 27.0392 22 26.5304 22 26V24H24C24.5304 24 25.0391 23.7893 25.4142 23.4142C25.7893 23.0392 26 22.5305 26 22C26 21.4696 25.7893 20.9609 25.4142 20.5858C25.0391 20.2107 24.5304 20 24 20ZM34 6.00004H21.44L20.8 4.00004C20.3851 2.8265 19.6155 1.81105 18.5978 1.09437C17.5801 0.377681 16.3647 -0.00475379 15.12 4.46071e-05H6C4.4087 4.46071e-05 2.88258 0.632185 1.75736 1.7574C0.632141 2.88262 0 4.40874 0 6.00004V32C0 33.5913 0.632141 35.1174 1.75736 36.2426C2.88258 37.3679 4.4087 38 6 38H34C35.5913 38 37.1174 37.3679 38.2426 36.2426C39.3679 35.1174 40 33.5913 40 32V12C40 10.4087 39.3679 8.88261 38.2426 7.7574C37.1174 6.63218 35.5913 6.00004 34 6.00004ZM36 32C36 32.5304 35.7893 33.0392 35.4142 33.4142C35.0391 33.7893 34.5304 34 34 34H6C5.46957 34 4.96086 33.7893 4.58579 33.4142C4.21071 33.0392 4 32.5304 4 32V6.00004C4 5.46961 4.21071 4.9609 4.58579 4.58583C4.96086 4.21075 5.46957 4.00004 6 4.00004H15.12C15.5393 3.99896 15.9483 4.12968 16.2893 4.37372C16.6302 4.61777 16.8858 4.9628 17.02 5.36004L18.1 8.64003C18.2342 9.03728 18.4898 9.3823 18.8307 9.62635C19.1717 9.87039 19.5807 10.0011 20 10H34C34.5304 10 35.0391 10.2107 35.4142 10.5858C35.7893 10.9609 36 11.4696 36 12V32Z" fill="#FCFEFF"/>
</svg>
