<svg width="46" height="46" viewBox="0 0 46 46" fill="none" xmlns="http://www.w3.org/2000/svg">
<path d="M23 0C18.451 0 14.0042 1.34893 10.2219 3.8762C6.43956 6.40347 3.4916 9.99558 1.75078 14.1983C0.00996554 18.401 -0.445511 23.0255 0.441949 27.4871C1.32941 31.9486 3.51995 36.0468 6.73655 39.2634C9.95316 42.48 14.0514 44.6706 18.5129 45.558C22.9745 46.4455 27.599 45.99 31.8017 44.2492C36.0044 42.5084 39.5965 39.5604 42.1238 35.7781C44.6511 31.9958 46 27.549 46 23C46 19.9796 45.4051 16.9888 44.2492 14.1983C43.0934 11.4078 41.3992 8.87229 39.2635 6.73654C37.1277 4.6008 34.5922 2.90663 31.8017 1.75077C29.0112 0.594913 26.0204 0 23 0ZM23 41.4C19.3608 41.4 15.8034 40.3208 12.7775 38.299C9.75165 36.2772 7.39328 33.4035 6.00063 30.0414C4.60797 26.6792 4.24359 22.9796 4.95356 19.4103C5.66353 15.8411 7.41596 12.5625 9.98924 9.98923C12.5625 7.41595 15.8411 5.66352 19.4103 4.95355C22.9796 4.24358 26.6792 4.60796 30.0414 6.00062C33.4035 7.39327 36.2772 9.75164 38.299 12.7775C40.3209 15.8034 41.4 19.3608 41.4 23C41.4 27.88 39.4614 32.5601 36.0108 36.0108C32.5601 39.4614 27.88 41.4 23 41.4ZM32.2 20.7H25.3V13.8C25.3 13.19 25.0577 12.605 24.6264 12.1737C24.195 11.7423 23.61 11.5 23 11.5C22.39 11.5 21.805 11.7423 21.3737 12.1737C20.9423 12.605 20.7 13.19 20.7 13.8V20.7H13.8C13.19 20.7 12.605 20.9423 12.1737 21.3736C11.7423 21.805 11.5 22.39 11.5 23C11.5 23.61 11.7423 24.195 12.1737 24.6263C12.605 25.0577 13.19 25.3 13.8 25.3H20.7V32.2C20.7 32.81 20.9423 33.395 21.3737 33.8263C21.805 34.2577 22.39 34.5 23 34.5C23.61 34.5 24.195 34.2577 24.6264 33.8263C25.0577 33.395 25.3 32.81 25.3 32.2V25.3H32.2C32.81 25.3 33.395 25.0577 33.8264 24.6263C34.2577 24.195 34.5 23.61 34.5 23C34.5 22.39 34.2577 21.805 33.8264 21.3736C33.395 20.9423 32.81 20.7 32.2 20.7Z" fill="#FCFEFF"/>
</svg>
