<svg width="9" height="16" viewBox="0 0 9 16" fill="none" xmlns="http://www.w3.org/2000/svg">
<path d="M5.25678 7.75124L8.14592 4.81205C8.21718 4.73996 8.27374 4.65419 8.31234 4.55968C8.35094 4.46518 8.37081 4.36382 8.37081 4.26144C8.37081 4.15906 8.35094 4.0577 8.31234 3.9632C8.27374 3.86869 8.21718 3.78292 8.14592 3.71083L4.72457 0.221031C4.65226 0.150428 4.567 0.0950837 4.47367 0.0581737C4.28857 -0.0193913 4.08095 -0.0193913 3.89584 0.0581737C3.71007 0.136869 3.56243 0.287454 3.48528 0.476949C3.44632 0.570183 3.42566 0.670302 3.42446 0.771643V5.88226L1.30322 3.71083C1.23233 3.63852 1.14818 3.58116 1.05555 3.54203C0.962934 3.5029 0.863663 3.48276 0.76341 3.48276C0.663158 3.48276 0.563887 3.5029 0.471266 3.54203C0.378645 3.58116 0.294487 3.63852 0.223598 3.71083C0.152709 3.78313 0.0964763 3.86898 0.0581114 3.96345C0.0197464 4.05792 -7.46939e-10 4.15918 0 4.26144C7.46939e-10 4.3637 0.0197464 4.46495 0.0581114 4.55943C0.0964763 4.6539 0.152709 4.73974 0.223598 4.81205L3.11274 7.75124L0.223598 10.6904C0.152709 10.7627 0.0964763 10.8486 0.0581114 10.943C0.0197464 11.0375 1.49388e-09 11.1388 0 11.241C-1.49388e-09 11.3433 0.0197464 11.4445 0.0581114 11.539C0.0964763 11.6335 0.152709 11.7193 0.223598 11.7916C0.294487 11.864 0.378645 11.9213 0.471266 11.9604C0.563887 11.9996 0.663158 12.0197 0.76341 12.0197C0.863663 12.0197 0.962934 11.9996 1.05555 11.9604C1.14818 11.9213 1.23233 11.864 1.30322 11.7916L3.42446 9.62021V14.7308C3.42566 14.8322 3.44632 14.9323 3.48528 15.0255C3.56243 15.215 3.71007 15.3656 3.89584 15.4443C3.98685 15.4853 4.08526 15.5065 4.18476 15.5065C4.28426 15.5065 4.38266 15.4853 4.47367 15.4443C4.567 15.4074 4.65226 15.352 4.72457 15.2814L8.14592 11.7916C8.21718 11.7195 8.27374 11.6338 8.31234 11.5393C8.35094 11.4448 8.37081 11.3434 8.37081 11.241C8.37081 11.1387 8.35094 11.0373 8.31234 10.9428C8.27374 10.8483 8.21718 10.7625 8.14592 10.6904L5.25678 7.75124ZM4.94506 2.64062L6.53408 4.26144L4.94506 5.88226V2.64062ZM4.94506 12.8618V9.62021L6.53408 11.241L4.94506 12.8618Z" fill="#FCFEFF"/>
</svg>
