<svg width="41" height="28" viewBox="0 0 41 28" fill="none" xmlns="http://www.w3.org/2000/svg">
<path d="M40.9181 13.5037C37.4292 5.30061 29.4144 0 20.5 0C11.5856 0 3.571 5.30045 0.0819199 13.5037C-0.0273066 13.7604 -0.0273066 14.0504 0.0819199 14.3071C3.57076 22.5111 11.5855 27.8121 20.5 27.8121C29.4148 27.8121 37.4294 22.5111 40.9181 14.3071C41.0273 14.0504 41.0273 13.7604 40.9181 13.5037ZM20.5 25.7594C12.5567 25.7594 5.40071 21.1211 2.14681 13.9055C5.40079 6.69061 12.557 2.0528 20.5 2.0528C28.4432 2.0528 35.5993 6.69061 38.8532 13.9053C35.5993 21.1209 28.4433 25.7594 20.5 25.7594Z" fill="white"/>
<path d="M20.5 6.04437C16.1651 6.04437 12.6384 9.57109 12.6384 13.906C12.6384 18.2408 16.1651 21.7676 20.5 21.7676C24.8349 21.7676 28.3616 18.2409 28.3616 13.906C28.3616 9.57101 24.8349 6.04437 20.5 6.04437ZM20.5 19.715C17.2971 19.715 14.6912 17.1091 14.6912 13.9061C14.6912 10.7032 17.2971 8.09726 20.5 8.09726C23.703 8.09726 26.3089 10.7032 26.3089 13.9061C26.3089 17.1091 23.703 19.715 20.5 19.715Z" fill="white"/>
<path d="M20.5 9.73224C18.1986 9.73224 16.326 11.6046 16.326 13.9062C16.326 14.4729 16.7855 14.9325 17.3524 14.9325C17.9194 14.9325 18.3788 14.4729 18.3788 13.9062C18.3788 12.7365 19.3303 11.785 20.5 11.785C21.0669 11.785 21.5263 11.3254 21.5263 10.7586C21.5263 10.1916 21.0668 9.73224 20.5 9.73224Z" fill="white"/>
</svg>
