<svg width="41" height="41" viewBox="0 0 41 41" fill="none" xmlns="http://www.w3.org/2000/svg">
<path d="M18.3263 8.36825C19.045 8.25808 19.7711 8.20328 20.4983 8.20433C27.014 8.20433 33.1405 12.8965 36.7057 20.4983C36.1605 21.6551 35.5446 22.7773 34.8617 23.8586C34.6448 24.1942 34.5309 24.586 34.5338 24.9855C34.5384 25.4327 34.6891 25.8661 34.963 26.2196C35.2369 26.5731 35.6189 26.8273 36.0508 26.9434C36.4826 27.0595 36.9406 27.0311 37.3548 26.8626C37.7691 26.694 38.1168 26.3946 38.3449 26.01C39.2996 24.51 40.1288 22.9338 40.8242 21.2974C40.9341 21.0417 40.9908 20.7663 40.9908 20.488C40.9908 20.2097 40.9341 19.9343 40.8242 19.6787C36.6852 10.0689 28.8991 4.10636 20.4983 4.10636C19.5366 4.10151 18.5765 4.18381 17.6297 4.35224C17.3606 4.39798 17.1032 4.49627 16.8721 4.64151C16.641 4.78674 16.4408 4.97606 16.2828 5.19868C16.1249 5.42129 16.0124 5.67282 15.9517 5.93892C15.891 6.20502 15.8833 6.48047 15.929 6.74955C15.9748 7.01863 16.073 7.27606 16.2183 7.50715C16.3635 7.73824 16.5528 7.93846 16.7755 8.09638C16.9981 8.2543 17.2496 8.36683 17.5157 8.42754C17.7818 8.48825 18.0572 8.49595 18.3263 8.45021V8.36825ZM3.51215 0.60259C3.32111 0.411545 3.0943 0.26 2.84469 0.156608C2.59508 0.0532153 2.32755 0 2.05737 0C1.78719 0 1.51966 0.0532153 1.27005 0.156608C1.02044 0.26 0.793634 0.411545 0.60259 0.60259C0.216758 0.988422 0 1.51172 0 2.05737C0 2.60302 0.216758 3.12632 0.60259 3.51215L6.95445 9.84352C4.05631 12.6333 1.74973 15.9782 0.172302 19.6787C0.0594785 19.9372 0.00124327 20.2162 0.00124327 20.4983C0.00124327 20.7803 0.0594785 21.0593 0.172302 21.3178C4.31126 30.9276 12.0974 36.8901 20.4983 36.8901C24.1805 36.8647 27.7758 35.7683 30.8456 33.7347L37.4844 40.3939C37.6748 40.586 37.9015 40.7384 38.1511 40.8424C38.4008 40.9464 38.6686 41 38.9391 41C39.2096 41 39.4774 40.9464 39.7271 40.8424C39.9768 40.7384 40.2034 40.586 40.3939 40.3939C40.586 40.2034 40.7384 39.9768 40.8424 39.7271C40.9464 39.4774 41 39.2096 41 38.9391C41 38.6686 40.9464 38.4008 40.8424 38.1511C40.7384 37.9015 40.586 37.6748 40.3939 37.4844L3.51215 0.60259ZM16.5437 19.4328L21.5637 24.4528C21.2174 24.5521 20.8585 24.6004 20.4983 24.5962C19.4114 24.5962 18.3691 24.1645 17.6005 23.396C16.832 22.6274 16.4003 21.5851 16.4003 20.4983C16.3961 20.138 16.4444 19.7791 16.5437 19.4328ZM20.4983 32.7922C13.9825 32.7922 7.856 28.1 4.31126 20.4983C5.63508 17.5759 7.51397 14.9385 9.84352 12.7326L13.4702 16.4003C12.6184 17.955 12.2936 19.7441 12.5446 21.4991C12.7957 23.2541 13.609 24.8803 14.8626 26.1339C16.1162 27.3875 17.7424 28.2008 19.4974 28.4519C21.2524 28.7029 23.0415 28.3782 24.5962 27.5263L27.8541 30.7432C25.623 32.0563 23.087 32.7627 20.4983 32.7922Z" fill="#FCFEFF"/>
</svg>
