<svg width="41" height="41" viewBox="0 0 41 41" fill="none" xmlns="http://www.w3.org/2000/svg">
<path d="M20.5 26.0909C23.2185 26.0909 25.8256 25.3055 27.7478 23.9075C29.6701 22.5095 30.75 20.6134 30.75 18.6364V7.45455C30.75 5.47748 29.6701 3.58138 27.7478 2.18339C25.8256 0.785387 23.2185 0 20.5 0C17.7815 0 15.1744 0.785387 13.2522 2.18339C11.3299 3.58138 10.25 5.47748 10.25 7.45455V18.6364C10.25 20.6134 11.3299 22.5095 13.2522 23.9075C15.1744 25.3055 17.7815 26.0909 20.5 26.0909ZM15.375 7.45455C15.375 6.46601 15.915 5.51796 16.8761 4.81897C17.8372 4.11997 19.1408 3.72727 20.5 3.72727C21.8592 3.72727 23.1628 4.11997 24.1239 4.81897C25.085 5.51796 25.625 6.46601 25.625 7.45455V18.6364C25.625 19.6249 25.085 20.5729 24.1239 21.2719C23.1628 21.9709 21.8592 22.3636 20.5 22.3636C19.1408 22.3636 17.8372 21.9709 16.8761 21.2719C15.915 20.5729 15.375 19.6249 15.375 18.6364V7.45455ZM41 18.6364C41 18.1421 40.73 17.6681 40.2495 17.3186C39.7689 16.9691 39.1171 16.7727 38.4375 16.7727C37.7579 16.7727 37.1061 16.9691 36.6255 17.3186C36.145 17.6681 35.875 18.1421 35.875 18.6364C35.875 21.602 34.2551 24.4461 31.3718 26.5431C28.4884 28.6401 24.5777 29.8182 20.5 29.8182C16.4223 29.8182 12.5116 28.6401 9.62823 26.5431C6.74486 24.4461 5.125 21.602 5.125 18.6364C5.125 18.1421 4.85502 17.6681 4.37446 17.3186C3.8939 16.9691 3.24212 16.7727 2.5625 16.7727C1.88288 16.7727 1.2311 16.9691 0.750539 17.3186C0.269977 17.6681 0 18.1421 0 18.6364C0.00452484 22.2654 1.82891 25.7687 5.13114 28.4894C8.43338 31.21 12.9867 32.9614 17.9375 33.415V37.2727H12.8125C12.1329 37.2727 11.4811 37.4691 11.0005 37.8186C10.52 38.1681 10.25 38.6421 10.25 39.1364C10.25 39.6306 10.52 40.1047 11.0005 40.4542C11.4811 40.8037 12.1329 41 12.8125 41H28.1875C28.8671 41 29.5189 40.8037 29.9995 40.4542C30.48 40.1047 30.75 39.6306 30.75 39.1364C30.75 38.6421 30.48 38.1681 29.9995 37.8186C29.5189 37.4691 28.8671 37.2727 28.1875 37.2727H23.0625V33.415C28.0133 32.9614 32.5666 31.21 35.8689 28.4894C39.1711 25.7687 40.9955 22.2654 41 18.6364Z" fill="#FCFEFF"/>
</svg>
