<svg width="41" height="41" viewBox="0 0 41 41" fill="none" xmlns="http://www.w3.org/2000/svg">
<path d="M17.4486 5.03181C17.8133 4.63273 18.2655 4.30705 18.7765 4.07554C19.2874 3.84403 19.8459 3.71176 20.4163 3.68718C20.9866 3.66259 21.5564 3.74622 22.0892 3.93274C22.622 4.11926 23.1061 4.40458 23.5108 4.7705C24.2526 5.47942 24.6584 6.42443 24.6411 7.40231V13.7672C24.6411 14.2622 24.8576 14.737 25.243 15.0871C25.6283 15.4371 26.151 15.6337 26.6961 15.6337C27.2411 15.6337 27.7638 15.4371 28.1492 15.0871C28.5345 14.737 28.7511 14.2622 28.7511 13.7672V7.40231C28.7041 5.90412 28.1617 4.45346 27.1946 3.23907C26.2275 2.02468 24.8803 1.10278 23.3284 0.593326C21.7766 0.0838717 20.0918 0.0104457 18.4933 0.382602C16.8949 0.754758 15.4568 1.55527 14.3661 2.67997C14.1269 2.85184 13.9328 3.06991 13.7979 3.31837C13.663 3.56682 13.5907 3.83944 13.5862 4.11643C13.5817 4.39342 13.6452 4.66785 13.772 4.9198C13.8988 5.17175 14.0857 5.39491 14.3192 5.57309C14.5528 5.75127 14.827 5.88 15.1221 5.94994C15.4173 6.01988 15.7258 6.02928 16.0254 5.97746C16.325 5.92563 16.6082 5.81389 16.8543 5.65032C17.1005 5.48676 17.3035 5.27548 17.4486 5.03181V5.03181ZM34.3406 22.8386H34.7516C35.2353 22.8466 35.7066 22.6993 36.0825 22.4228C36.4584 22.1462 36.7148 21.7581 36.8066 21.3267C36.954 20.4249 37.009 19.5126 36.971 18.6015C36.971 18.1065 36.7545 17.6317 36.3692 17.2817C35.9838 16.9317 35.4611 16.735 34.916 16.735C34.371 16.735 33.8483 16.9317 33.4629 17.2817C33.0776 17.6317 32.8611 18.1065 32.8611 18.6015C32.8613 19.2911 32.7855 19.9789 32.635 20.6547C32.585 20.9002 32.5898 21.1523 32.649 21.3961C32.7082 21.6399 32.8206 21.8705 32.9797 22.0741C33.1387 22.2777 33.3411 22.4503 33.5749 22.5816C33.8086 22.7129 34.069 22.8003 34.3406 22.8386V22.8386ZM40.5056 34.1498L3.51568 0.552119C3.32464 0.377171 3.09735 0.238311 2.84693 0.14355C2.59651 0.048788 2.32791 0 2.05663 0C1.78534 0 1.51674 0.048788 1.26632 0.14355C1.0159 0.238311 0.788617 0.377171 0.597578 0.552119C0.214833 0.901838 0 1.37492 0 1.86803C0 2.36114 0.214833 2.83422 0.597578 3.18394L12.3111 13.8979V18.6015C12.3125 19.9115 12.6934 21.198 13.4155 22.3319C14.1376 23.4659 15.1754 24.4073 16.4247 25.0617C17.6741 25.7161 19.091 26.0604 20.5332 26.06C21.9754 26.0597 23.3921 25.7147 24.6411 25.0598L27.6414 27.7849C25.7927 28.9701 23.6207 29.6704 21.363 29.8091C19.1054 29.9478 16.8493 29.5195 14.8418 28.5712C12.8343 27.6229 11.1528 26.1911 9.9815 24.4326C8.81019 22.6741 8.19423 20.6568 8.20107 18.6015C8.20107 18.1065 7.98456 17.6317 7.59918 17.2817C7.21379 16.9317 6.69109 16.735 6.14607 16.735C5.60105 16.735 5.07836 16.9317 4.69297 17.2817C4.30758 17.6317 4.09108 18.1065 4.09108 18.6015C4.0947 22.2362 5.55777 25.7449 8.206 28.4699C10.8542 31.1948 14.5058 32.9489 18.4761 33.4032V37.2669H14.3661C13.821 37.2669 13.2984 37.4636 12.913 37.8136C12.5276 38.1637 12.3111 38.6384 12.3111 39.1335C12.3111 39.6285 12.5276 40.1033 12.913 40.4533C13.2984 40.8033 13.821 41 14.3661 41H26.6961C27.2411 41 27.7638 40.8033 28.1492 40.4533C28.5345 40.1033 28.7511 39.6285 28.7511 39.1335C28.7511 38.6384 28.5345 38.1637 28.1492 37.8136C27.7638 37.4636 27.2411 37.2669 26.6961 37.2669H22.5861V33.4032C25.4689 33.0773 28.2019 32.0521 30.4978 30.4354L37.4848 36.7816C37.869 37.1331 38.3913 37.3315 38.9366 37.3333C39.4819 37.335 40.0057 37.14 40.3926 36.791C40.7796 36.442 40.9981 35.9676 41 35.4723C41.0019 34.977 40.7871 34.5013 40.4029 34.1498H40.5056ZM20.5311 22.3346C19.441 22.3346 18.3956 21.9413 17.6249 21.2412C16.8541 20.5411 16.4211 19.5916 16.4211 18.6015V17.6309L21.4558 22.2226C21.1543 22.2965 20.8434 22.3341 20.5311 22.3346Z" fill="white"/>
</svg>
