<svg width="37" height="36" viewBox="0 0 37 36" fill="none" xmlns="http://www.w3.org/2000/svg">
<path d="M36.2733 19.8089C36.0064 19.5881 35.683 19.4467 35.3398 19.4009C34.9966 19.3551 34.6475 19.4067 34.3322 19.5498C32.3774 20.4454 30.252 20.9063 28.1023 20.9009C24.1256 20.8961 20.312 19.3174 17.4932 16.5091C14.6743 13.7008 13.0787 9.89057 13.0543 5.90926C13.0628 4.6615 13.2179 3.41908 13.5165 2.20763C13.5799 1.88474 13.5561 1.55076 13.4476 1.24013C13.3392 0.929486 13.15 0.653411 12.8995 0.440345C12.649 0.227279 12.3463 0.0849262 12.0226 0.0279521C11.6989 -0.029022 11.3658 0.00144313 11.0578 0.116209C8.15973 1.42087 5.64049 3.44168 3.73673 5.98882C1.83298 8.53595 0.607205 11.5258 0.174567 14.6775C-0.258072 17.8292 0.116624 21.0392 1.26345 24.0061C2.41029 26.973 4.29161 29.5993 6.73068 31.6383C9.16976 33.6774 12.0865 35.0622 15.207 35.6626C18.3274 36.2631 21.5491 36.0596 24.5694 35.0712C27.5897 34.0827 30.3095 32.3418 32.4732 30.012C34.6369 27.6822 36.1736 24.8399 36.9388 21.7523C37.032 21.3987 37.0185 21.0255 36.9001 20.6796C36.7816 20.3338 36.5635 20.0308 36.2733 19.8089ZM18.7112 32.1909C15.6087 32.1689 12.5888 31.1875 10.0651 29.3808C7.54128 27.5742 5.63696 25.0307 4.61285 22.0986C3.58873 19.1665 3.49489 15.9892 4.34416 13.0016C5.19343 10.014 6.94431 7.36234 9.35705 5.40954V5.90926C9.36194 10.8852 11.3385 15.6558 14.8528 19.1743C18.3672 22.6928 23.1322 24.6716 28.1023 24.6765C29.4072 24.6813 30.7088 24.5448 31.9844 24.2694C30.7087 26.6856 28.7982 28.7073 26.4591 30.1164C24.12 31.5254 21.441 32.2683 18.7112 32.2649V32.1909Z" fill="white"/>
</svg>
