<svg width="38" height="38" viewBox="0 0 38 38" fill="none" xmlns="http://www.w3.org/2000/svg">
<path d="M25.65 9.5C25.1461 9.5 24.6628 9.70018 24.3065 10.0565C23.9502 10.4128 23.75 10.8961 23.75 11.4V14.611L16.15 10.222C15.5726 9.88864 14.9177 9.71306 14.251 9.71289C13.5843 9.71272 12.9292 9.88796 12.3517 10.221C11.7741 10.5541 11.2944 11.0332 10.9606 11.6104C10.6268 12.1875 10.4507 12.8423 10.45 13.509V24.491C10.4507 25.1574 10.6266 25.8119 10.9601 26.3888C11.2936 26.9657 11.7729 27.4448 12.35 27.778C12.9277 28.1115 13.583 28.2871 14.25 28.2871C14.917 28.2871 15.5723 28.1115 16.15 27.778L23.75 23.389V26.6C23.75 27.1039 23.9502 27.5872 24.3065 27.9435C24.6628 28.2998 25.1461 28.5 25.65 28.5C26.1539 28.5 26.6372 28.2998 26.9935 27.9435C27.3498 27.5872 27.55 27.1039 27.55 26.6V11.4C27.55 10.8961 27.3498 10.4128 26.9935 10.0565C26.6372 9.70018 26.1539 9.5 25.65 9.5ZM23.75 19L14.25 24.491V13.509L23.75 18.981V19ZM19 0C15.2422 0 11.5687 1.11433 8.44417 3.20208C5.31964 5.28982 2.88436 8.25722 1.4463 11.729C0.0082324 15.2008 -0.368031 19.0211 0.365088 22.7067C1.09821 26.3923 2.90778 29.7778 5.56498 32.435C8.22218 35.0922 11.6077 36.9018 15.2933 37.6349C18.9789 38.368 22.7992 37.9918 26.271 36.5537C29.7428 35.1156 32.7102 32.6804 34.7979 29.5558C36.8857 26.4313 38 22.7578 38 19C38 16.5049 37.5086 14.0342 36.5537 11.729C35.5989 9.42383 34.1993 7.32928 32.435 5.56497C30.6707 3.80066 28.5762 2.40113 26.271 1.44629C23.9658 0.491449 21.4951 0 19 0ZM19 34.2C15.9937 34.2 13.055 33.3085 10.5553 31.6383C8.05571 29.9681 6.10749 27.5942 4.95704 24.8168C3.80659 22.0393 3.50558 18.9831 4.09207 16.0346C4.67857 13.0861 6.12623 10.3777 8.25198 8.25197C10.3777 6.12622 13.0861 4.67856 16.0346 4.09206C18.9831 3.50557 22.0394 3.80658 24.8168 4.95703C27.5942 6.10748 29.9681 8.0557 31.6383 10.5553C33.3085 13.055 34.2 15.9937 34.2 19C34.2 23.0313 32.5986 26.8975 29.748 29.748C26.8975 32.5986 23.0313 34.2 19 34.2Z" fill="white"/>
</svg>
