<svg width="27" height="27" viewBox="0 0 27 27" fill="none" xmlns="http://www.w3.org/2000/svg">
<path d="M10.8 6.75C10.442 6.75 10.0986 6.89223 9.84541 7.1454C9.59224 7.39858 9.45 7.74196 9.45 8.1V18.9C9.45 19.258 9.59224 19.6014 9.84541 19.8546C10.0986 20.1078 10.442 20.25 10.8 20.25C11.158 20.25 11.5014 20.1078 11.7546 19.8546C12.0078 19.6014 12.15 19.258 12.15 18.9V8.1C12.15 7.74196 12.0078 7.39858 11.7546 7.1454C11.5014 6.89223 11.158 6.75 10.8 6.75ZM13.5 0C10.83 0 8.21987 0.791761 5.99981 2.27516C3.77974 3.75856 2.04942 5.86697 1.02763 8.33377C0.00584933 10.8006 -0.261496 13.515 0.259405 16.1337C0.780305 18.7525 2.06606 21.1579 3.95406 23.0459C5.84207 24.9339 8.24754 26.2197 10.8663 26.7406C13.485 27.2615 16.1994 26.9942 18.6662 25.9724C21.133 24.9506 23.2414 23.2203 24.7248 21.0002C26.2082 18.7801 27 16.17 27 13.5C27 11.7272 26.6508 9.97167 25.9724 8.33377C25.2939 6.69588 24.2995 5.20765 23.0459 3.95406C21.7924 2.70047 20.3041 1.70606 18.6662 1.02763C17.0283 0.349188 15.2728 0 13.5 0V0ZM13.5 24.3C11.364 24.3 9.2759 23.6666 7.49985 22.4799C5.7238 21.2931 4.33953 19.6064 3.52211 17.633C2.70468 15.6595 2.4908 13.488 2.90752 11.393C3.32425 9.29803 4.35284 7.37365 5.86325 5.86325C7.37366 4.35284 9.29803 3.32424 11.393 2.90752C13.488 2.4908 15.6595 2.70467 17.633 3.5221C19.6064 4.33953 21.2932 5.72379 22.4799 7.49984C23.6666 9.27589 24.3 11.364 24.3 13.5C24.3 16.3643 23.1621 19.1114 21.1368 21.1367C19.1114 23.1621 16.3643 24.3 13.5 24.3V24.3ZM16.2 6.75C15.842 6.75 15.4986 6.89223 15.2454 7.1454C14.9922 7.39858 14.85 7.74196 14.85 8.1V18.9C14.85 19.258 14.9922 19.6014 15.2454 19.8546C15.4986 20.1078 15.842 20.25 16.2 20.25C16.558 20.25 16.9014 20.1078 17.1546 19.8546C17.4078 19.6014 17.55 19.258 17.55 18.9V8.1C17.55 7.74196 17.4078 7.39858 17.1546 7.1454C16.9014 6.89223 16.558 6.75 16.2 6.75Z" fill="white"/>
</svg>
