<svg width="27" height="27" viewBox="0 0 27 27" fill="none" xmlns="http://www.w3.org/2000/svg">
<path d="M18.9 11.1645L12.15 7.263C11.7398 7.02614 11.2744 6.90139 10.8007 6.90127C10.327 6.90114 9.86157 7.02566 9.4512 7.26231C9.04083 7.49895 8.69995 7.8394 8.46277 8.24947C8.2256 8.65953 8.10049 9.12478 8.1 9.5985V17.4015C8.10049 17.875 8.22548 18.34 8.46243 18.7499C8.69938 19.1598 9.03996 19.5003 9.45 19.737C9.86046 19.974 10.3261 20.0987 10.8 20.0987C11.274 20.0987 11.7396 19.974 12.15 19.737L18.9 15.8355C19.3092 15.5982 19.6488 15.2575 19.8849 14.8476C20.121 14.4377 20.2452 13.973 20.2452 13.5C20.2452 13.027 20.121 12.5623 19.8849 12.1524C19.6488 11.7425 19.3092 11.4018 18.9 11.1645V11.1645ZM17.55 13.5L10.8 17.4015V9.5985L17.55 13.5ZM13.5 0C10.83 0 8.21987 0.791761 5.99981 2.27516C3.77974 3.75856 2.04942 5.86697 1.02763 8.33377C0.00584933 10.8006 -0.261496 13.515 0.259405 16.1337C0.780305 18.7525 2.06606 21.1579 3.95406 23.0459C5.84207 24.9339 8.24754 26.2197 10.8663 26.7406C13.485 27.2615 16.1994 26.9942 18.6662 25.9724C21.133 24.9506 23.2414 23.2203 24.7248 21.0002C26.2082 18.7801 27 16.17 27 13.5C27 11.7272 26.6508 9.97167 25.9724 8.33377C25.2939 6.69588 24.2995 5.20765 23.0459 3.95406C21.7924 2.70047 20.3041 1.70606 18.6662 1.02763C17.0283 0.349188 15.2728 0 13.5 0V0ZM13.5 24.3C11.364 24.3 9.2759 23.6666 7.49985 22.4799C5.7238 21.2931 4.33953 19.6064 3.52211 17.633C2.70468 15.6595 2.4908 13.488 2.90752 11.393C3.32425 9.29803 4.35284 7.37365 5.86325 5.86325C7.37366 4.35284 9.29803 3.32424 11.393 2.90752C13.488 2.4908 15.6595 2.70467 17.633 3.5221C19.6064 4.33953 21.2932 5.72379 22.4799 7.49984C23.6666 9.27589 24.3 11.364 24.3 13.5C24.3 16.3643 23.1621 19.1114 21.1368 21.1367C19.1114 23.1621 16.3643 24.3 13.5 24.3V24.3Z" fill="white"/>
</svg>
