<svg width="41" height="41" viewBox="0 0 41 41" fill="none" xmlns="http://www.w3.org/2000/svg">
<path d="M21.378 0.210895C21.0451 0.0306602 20.68 -0.0358078 20.3199 0.0182744C19.9599 0.0723565 19.6177 0.245052 19.3283 0.518735L9.53094 10.2157H2.04966C1.50606 10.2157 0.98472 10.486 0.600333 10.9671C0.215946 11.4482 0 12.1007 0 12.781V28.173C0 28.8534 0.215946 29.5059 0.600333 29.987C0.98472 30.4681 1.50606 30.7384 2.04966 30.7384H9.53094L19.2259 40.4353C19.5865 40.7974 20.0343 40.9963 20.4967 40.9997C20.8028 41.006 21.1055 40.9179 21.378 40.7431C21.7268 40.5352 22.0215 40.2082 22.2283 39.7997C22.435 39.3912 22.5452 38.9179 22.5463 38.4343V2.51969C22.5452 2.03616 22.435 1.56287 22.2283 1.15437C22.0215 0.745873 21.7268 0.418812 21.378 0.210895ZM18.447 33.0985L11.5191 26.1721C11.1585 25.8099 10.7107 25.611 10.2483 25.6077H4.09933V15.3464H10.2483C10.7107 15.343 11.1585 15.1441 11.5191 14.782L18.447 7.85559V33.0985ZM36.1971 5.95724C35.8111 5.47418 35.2877 5.2028 34.7418 5.2028C34.196 5.2028 33.6725 5.47418 33.2866 5.95724C32.9006 6.4403 32.6838 7.09547 32.6838 7.77863C32.6838 8.46178 32.9006 9.11695 33.2866 9.60001C34.4935 11.1083 35.4366 12.9142 36.0559 14.9032C36.6752 16.8922 36.9572 19.0206 36.884 21.1533C36.8107 23.286 36.3838 25.3763 35.6304 27.2914C34.877 29.2065 33.8136 30.9045 32.5077 32.2776C32.1905 32.617 31.9637 33.0694 31.8575 33.5745C31.7513 34.0796 31.7708 34.6132 31.9134 35.104C32.056 35.5948 32.3149 36.0195 32.6555 36.3212C32.9961 36.623 33.4022 36.7874 33.8195 36.7925C34.2984 36.7937 34.7625 36.5849 35.1313 36.2025C36.8754 34.3742 38.2965 32.1116 39.3041 29.5586C40.3117 27.0057 40.8838 24.2182 40.9841 21.3735C41.0843 18.5289 40.7105 15.6892 39.8864 13.0351C39.0622 10.381 37.8058 7.97065 36.1971 5.95724ZM30.3965 13.2171C30.2054 12.9779 29.9785 12.7882 29.7289 12.6588C29.4792 12.5293 29.2115 12.4627 28.9413 12.4627C28.671 12.4627 28.4034 12.5293 28.1537 12.6588C27.904 12.7882 27.6771 12.9779 27.486 13.2171C27.2949 13.4563 27.1433 13.7403 27.0399 14.0528C26.9365 14.3653 26.8832 14.7003 26.8832 15.0385C26.8832 15.3768 26.9365 15.7117 27.0399 16.0242C27.1433 16.3368 27.2949 16.6207 27.486 16.8599C28.2558 17.8177 28.6907 19.1185 28.6953 20.477C28.6958 21.2244 28.5658 21.9629 28.3144 22.6409C28.0631 23.3189 27.6964 23.9199 27.24 24.402C27.0325 24.6173 26.8609 24.8818 26.7352 25.1803C26.6094 25.4788 26.532 25.8054 26.5072 26.1413C26.4825 26.4773 26.5109 26.8162 26.5909 27.1384C26.671 27.4606 26.801 27.7599 26.9736 28.0191C27.1471 28.277 27.3595 28.4896 27.5987 28.6446C27.8379 28.7997 28.0992 28.8942 28.3676 28.9228C28.636 28.9514 28.9063 28.9135 29.163 28.8112C29.4197 28.709 29.6578 28.5444 29.8636 28.3269C30.7801 27.3652 31.5173 26.1642 32.0236 24.8082C32.5299 23.4521 32.7931 21.9738 32.7946 20.477C32.7831 17.7581 31.9224 15.1525 30.3965 13.2171Z" fill="#FCFEFF"/>
</svg>
