<svg width="29" height="42" viewBox="0 0 29 42" fill="none" xmlns="http://www.w3.org/2000/svg">
<path d="M27.4973 0.216039C27.0691 0.031408 26.5995 -0.0366812 26.1364 0.0187201C25.6732 0.0741213 25.2331 0.251029 24.8609 0.531387L12.2591 10.4649H2.63636C1.93716 10.4649 1.26659 10.7417 0.772174 11.2346C0.277759 11.7274 0 12.3958 0 13.0928V28.8602C0 29.5571 0.277759 30.2255 0.772174 30.7184C1.26659 31.2112 1.93716 31.4881 2.63636 31.4881H12.2591L24.7291 41.4215C25.1929 41.7925 25.769 41.9962 26.3636 41.9997C26.7574 42.0062 27.1468 41.9159 27.4973 41.7369C27.9459 41.5239 28.325 41.1889 28.5909 40.7704C28.8568 40.3519 28.9986 39.8671 29 39.3718V2.58115C28.9986 2.08583 28.8568 1.60099 28.5909 1.18253C28.325 0.764065 27.9459 0.429027 27.4973 0.216039V0.216039ZM23.7273 33.9057L14.8164 26.8104C14.3525 26.4394 13.7765 26.2357 13.1818 26.2323H5.27273V15.7207H13.1818C13.7765 15.7172 14.3525 15.5135 14.8164 15.1425L23.7273 8.04719V33.9057Z" fill="white"/>
</svg>
