<svg width="40" height="40" viewBox="0 0 40 40" fill="none" xmlns="http://www.w3.org/2000/svg">
<path d="M2 18C1.60444 18 1.21776 18.1173 0.888861 18.3371C0.559963 18.5568 0.303617 18.8692 0.152242 19.2346C0.000866562 19.6001 -0.0387401 20.0022 0.0384303 20.3902C0.115601 20.7781 0.306082 21.1345 0.585787 21.4142C0.865492 21.6939 1.22186 21.8844 1.60982 21.9616C1.99778 22.0387 2.39992 21.9991 2.76537 21.8478C3.13082 21.6964 3.44318 21.44 3.66294 21.1111C3.8827 20.7822 4 20.3956 4 20C4 19.4696 3.78929 18.9609 3.41421 18.5858C3.03914 18.2107 2.53043 18 2 18ZM5.86 31.32C5.57911 31.5992 5.38744 31.9556 5.30931 32.3439C5.23117 32.7321 5.27008 33.1349 5.42111 33.501C5.57213 33.8672 5.82847 34.1802 6.15762 34.4005C6.48678 34.6208 6.87393 34.7384 7.27 34.7384C7.66607 34.7384 8.05322 34.6208 8.38238 34.4005C8.71153 34.1802 8.96787 33.8672 9.1189 33.501C9.26992 33.1349 9.30883 32.7321 9.2307 32.3439C9.15256 31.9556 8.9609 31.5992 8.68 31.32C8.30528 30.9475 7.79837 30.7384 7.27 30.7384C6.74163 30.7384 6.23473 30.9475 5.86 31.32V31.32ZM8.68 8.68C8.9609 8.40077 9.15256 8.04443 9.2307 7.65614C9.30883 7.26786 9.26992 6.86511 9.1189 6.49897C8.96787 6.13282 8.71153 5.81976 8.38238 5.59947C8.05322 5.37918 7.66607 5.26159 7.27 5.26159C6.87393 5.26159 6.48678 5.37918 6.15762 5.59947C5.82847 5.81976 5.57213 6.13282 5.42111 6.49897C5.27008 6.86511 5.23117 7.26786 5.30931 7.65614C5.38744 8.04443 5.57911 8.40077 5.86 8.68C6.23473 9.0525 6.74163 9.26159 7.27 9.26159C7.79837 9.26159 8.30528 9.0525 8.68 8.68ZM20 4C20.3956 4 20.7822 3.8827 21.1111 3.66294C21.44 3.44318 21.6964 3.13082 21.8478 2.76537C21.9991 2.39992 22.0387 1.99778 21.9616 1.60982C21.8844 1.22186 21.6939 0.865492 21.4142 0.585787C21.1345 0.306082 20.7781 0.115601 20.3902 0.0384303C20.0022 -0.0387401 19.6001 0.000866562 19.2346 0.152242C18.8692 0.303617 18.5568 0.559962 18.3371 0.888861C18.1173 1.21776 18 1.60444 18 2C18 2.53043 18.2107 3.03914 18.5858 3.41421C18.9609 3.78929 19.4696 4 20 4ZM31.32 31.32C31.0391 31.5992 30.8474 31.9556 30.7693 32.3439C30.6912 32.7321 30.7301 33.1349 30.8811 33.501C31.0321 33.8672 31.2885 34.1802 31.6176 34.4005C31.9468 34.6208 32.3339 34.7384 32.73 34.7384C33.1261 34.7384 33.5132 34.6208 33.8424 34.4005C34.1715 34.1802 34.4279 33.8672 34.5789 33.501C34.7299 33.1349 34.7688 32.7321 34.6907 32.3439C34.6126 31.9556 34.4209 31.5992 34.14 31.32C33.7653 30.9475 33.2584 30.7384 32.73 30.7384C32.2016 30.7384 31.6947 30.9475 31.32 31.32V31.32ZM38 18C37.6044 18 37.2178 18.1173 36.8889 18.3371C36.56 18.5568 36.3036 18.8692 36.1522 19.2346C36.0009 19.6001 35.9613 20.0022 36.0384 20.3902C36.1156 20.7781 36.3061 21.1345 36.5858 21.4142C36.8655 21.6939 37.2219 21.8844 37.6098 21.9616C37.9978 22.0387 38.3999 21.9991 38.7654 21.8478C39.1308 21.6964 39.4432 21.44 39.6629 21.1111C39.8827 20.7822 40 20.3956 40 20C40 19.4696 39.7893 18.9609 39.4142 18.5858C39.0391 18.2107 38.5304 18 38 18ZM31.32 5.86C31.0391 6.13923 30.8474 6.49557 30.7693 6.88386C30.6912 7.27214 30.7301 7.67489 30.8811 8.04103C31.0321 8.40718 31.2885 8.72024 31.6176 8.94053C31.9468 9.16082 32.3339 9.27841 32.73 9.27841C33.1261 9.27841 33.5132 9.16082 33.8424 8.94053C34.1715 8.72024 34.4279 8.40718 34.5789 8.04103C34.7299 7.67489 34.7688 7.27214 34.6907 6.88386C34.6126 6.49557 34.4209 6.13923 34.14 5.86C33.7653 5.4875 33.2584 5.27842 32.73 5.27842C32.2016 5.27842 31.6947 5.4875 31.32 5.86V5.86ZM20 36C19.6044 36 19.2178 36.1173 18.8889 36.3371C18.56 36.5568 18.3036 36.8692 18.1522 37.2346C18.0009 37.6001 17.9613 38.0022 18.0384 38.3902C18.1156 38.7781 18.3061 39.1345 18.5858 39.4142C18.8655 39.6939 19.2219 39.8844 19.6098 39.9616C19.9978 40.0387 20.3999 39.9991 20.7654 39.8478C21.1308 39.6964 21.4432 39.44 21.6629 39.1111C21.8827 38.7822 22 38.3956 22 38C22 37.4696 21.7893 36.9609 21.4142 36.5858C21.0391 36.2107 20.5304 36 20 36ZM20 8C17.6266 8 15.3065 8.70379 13.3332 10.0224C11.3598 11.3409 9.8217 13.2151 8.91345 15.4078C8.00519 17.6005 7.76755 20.0133 8.23058 22.3411C8.6936 24.6689 9.83649 26.8071 11.5147 28.4853C13.193 30.1635 15.3311 31.3064 17.6589 31.7694C19.9867 32.2324 22.3995 31.9948 24.5922 31.0866C26.7849 30.1783 28.6591 28.6402 29.9776 26.6668C31.2962 24.6935 32 22.3734 32 20C32 16.8174 30.7357 13.7652 28.4853 11.5147C26.2348 9.26428 23.1826 8 20 8ZM20 28C18.4178 28 16.871 27.5308 15.5554 26.6518C14.2398 25.7727 13.2145 24.5233 12.609 23.0615C12.0035 21.5997 11.845 19.9911 12.1537 18.4393C12.4624 16.8874 13.2243 15.462 14.3431 14.3431C15.462 13.2243 16.8874 12.4624 18.4393 12.1537C19.9911 11.845 21.5997 12.0035 23.0615 12.609C24.5233 13.2145 25.7727 14.2398 26.6518 15.5554C27.5308 16.871 28 18.4177 28 20C28 22.1217 27.1571 24.1566 25.6569 25.6569C24.1566 27.1571 22.1217 28 20 28Z" fill="white"/>
</svg>
