<svg width="41" height="41" viewBox="0 0 41 41" fill="none" xmlns="http://www.w3.org/2000/svg">
<path d="M15.9444 32.8C16.5485 32.8 17.1279 32.584 17.5551 32.1996C17.9822 31.8151 18.2222 31.2937 18.2222 30.75V18.45C18.2222 17.9063 17.9822 17.3849 17.5551 17.0004C17.1279 16.616 16.5485 16.4 15.9444 16.4C15.3403 16.4 14.761 16.616 14.3338 17.0004C13.9066 17.3849 13.6667 17.9063 13.6667 18.45V30.75C13.6667 31.2937 13.9066 31.8151 14.3338 32.1996C14.761 32.584 15.3403 32.8 15.9444 32.8ZM38.7222 8.2H29.6111V6.15C29.6111 4.51892 28.8912 2.95464 27.6097 1.80129C26.3282 0.647945 24.5901 0 22.7778 0H18.2222C16.4099 0 14.6718 0.647945 13.3903 1.80129C12.1088 2.95464 11.3889 4.51892 11.3889 6.15V8.2H2.27778C1.67367 8.2 1.09431 8.41598 0.667146 8.80043C0.239979 9.18488 0 9.70631 0 10.25C0 10.7937 0.239979 11.3151 0.667146 11.6996C1.09431 12.084 1.67367 12.3 2.27778 12.3H4.55556V34.85C4.55556 36.4811 5.27549 38.0454 6.55699 39.1987C7.83849 40.3521 9.57658 41 11.3889 41H29.6111C31.4234 41 33.1615 40.3521 34.443 39.1987C35.7245 38.0454 36.4444 36.4811 36.4444 34.85V12.3H38.7222C39.3263 12.3 39.9057 12.084 40.3329 11.6996C40.76 11.3151 41 10.7937 41 10.25C41 9.70631 40.76 9.18488 40.3329 8.80043C39.9057 8.41598 39.3263 8.2 38.7222 8.2ZM15.9444 6.15C15.9444 5.60631 16.1844 5.08488 16.6116 4.70043C17.0388 4.31598 17.6181 4.1 18.2222 4.1H22.7778C23.3819 4.1 23.9612 4.31598 24.3884 4.70043C24.8156 5.08488 25.0556 5.60631 25.0556 6.15V8.2H15.9444V6.15ZM31.8889 34.85C31.8889 35.3937 31.6489 35.9151 31.2217 36.2996C30.7946 36.684 30.2152 36.9 29.6111 36.9H11.3889C10.7848 36.9 10.2054 36.684 9.77826 36.2996C9.35109 35.9151 9.11111 35.3937 9.11111 34.85V12.3H31.8889V34.85ZM25.0556 32.8C25.6597 32.8 26.239 32.584 26.6662 32.1996C27.0934 31.8151 27.3333 31.2937 27.3333 30.75V18.45C27.3333 17.9063 27.0934 17.3849 26.6662 17.0004C26.239 16.616 25.6597 16.4 25.0556 16.4C24.4515 16.4 23.8721 16.616 23.4449 17.0004C23.0178 17.3849 22.7778 17.9063 22.7778 18.45V30.75C22.7778 31.2937 23.0178 31.8151 23.4449 32.1996C23.8721 32.584 24.4515 32.8 25.0556 32.8Z" fill="#FCFEFF"/>
</svg>
