<svg width="45" height="45" viewBox="0 0 45 45" fill="none" xmlns="http://www.w3.org/2000/svg">
<path d="M22.5 11.25C21.9033 11.25 21.331 11.4871 20.909 11.909C20.4871 12.331 20.25 12.9033 20.25 13.5V22.5C20.25 23.0967 20.4871 23.669 20.909 24.091C21.331 24.5129 21.9033 24.75 22.5 24.75C23.0967 24.75 23.669 24.5129 24.091 24.091C24.5129 23.669 24.75 23.0967 24.75 22.5V13.5C24.75 12.9033 24.5129 12.331 24.091 11.909C23.669 11.4871 23.0967 11.25 22.5 11.25ZM22.5 29.25C22.055 29.25 21.62 29.382 21.25 29.6292C20.88 29.8764 20.5916 30.2278 20.4213 30.639C20.251 31.0501 20.2064 31.5025 20.2932 31.939C20.38 32.3754 20.5943 32.7763 20.909 33.091C21.2237 33.4057 21.6246 33.62 22.061 33.7068C22.4975 33.7936 22.9499 33.749 23.361 33.5787C23.7722 33.4084 24.1236 33.12 24.3708 32.75C24.618 32.38 24.75 31.945 24.75 31.5C24.75 30.9033 24.5129 30.331 24.091 29.909C23.669 29.4871 23.0967 29.25 22.5 29.25ZM44.3475 12.51L32.49 0.6525C32.0588 0.241349 31.4882 0.00828785 30.8925 0H14.1075C13.5118 0.00828785 12.9412 0.241349 12.51 0.6525L0.6525 12.51C0.241349 12.9412 0.00828785 13.5118 0 14.1075V30.8925C0.00828785 31.4882 0.241349 32.0588 0.6525 32.49L12.51 44.3475C12.9412 44.7586 13.5118 44.9917 14.1075 45H30.8925C31.4882 44.9917 32.0588 44.7586 32.49 44.3475L44.3475 32.49C44.7586 32.0588 44.9917 31.4882 45 30.8925V14.1075C44.9917 13.5118 44.7586 12.9412 44.3475 12.51V12.51ZM40.5 29.9475L29.9475 40.5H15.0525L4.5 29.9475V15.0525L15.0525 4.5H29.9475L40.5 15.0525V29.9475Z" fill="#B00020"/>
</svg>
